<?xml version="1.0" standalone="no"?>
<!DOCTYPE svg PUBLIC "-//W3C//DTD SVG 20010904//EN"
 "http://www.w3.org/TR/2001/REC-SVG-20010904/DTD/svg10.dtd">
<svg version="1.0" xmlns="http://www.w3.org/2000/svg"
 width="300.000000pt" height="300.000000pt" viewBox="0 0 300.000000 300.000000"
 preserveAspectRatio="xMidYMid meet">
<metadata>
Created by potrace 1.10, written by Peter Selinger 2001-2011
</metadata>
<g transform="translate(0.000000,300.000000) scale(0.100000,-0.100000)"
fill="#000000" stroke="none">
<path d="M1370 2679 c-30 -5 -76 -14 -102 -20 l-48 -11 0 -223 0 -224 53 -24
c29 -13 70 -39 92 -58 38 -34 39 -34 135 -34 94 0 97 1 138 34 23 18 65 44 92
57 l50 24 0 225 0 224 -37 10 c-108 29 -264 37 -373 20z m320 -53 l45 -11 3
-192 2 -192 -27 -17 c-16 -9 -50 -32 -78 -49 -84 -55 -161 -59 -108 -6 32 32
143 266 143 301 0 13 -10 34 -22 47 -20 21 -29 23 -135 23 -100 0 -115 -2
-133 -20 -44 -44 -12 -105 60 -116 22 -4 40 -8 40 -11 0 -2 -11 -25 -24 -51
-12 -26 -31 -69 -41 -95 -18 -47 -18 -48 4 -77 12 -17 18 -30 13 -30 -8 0
-136 80 -159 100 -15 12 -19 356 -5 377 8 12 68 26 152 36 52 7 218 -4 270
-17z m-60 -159 c0 -12 -27 -82 -61 -154 l-62 -133 -39 0 c-21 0 -38 1 -38 3 0
1 26 56 59 122 32 66 55 124 51 128 -4 5 -38 7 -74 5 -46 -2 -66 1 -66 9 0 6
-3 18 -6 27 -5 13 10 16 108 18 62 2 116 2 121 0 4 -2 7 -13 7 -25z"/>
<path d="M1094 2605 c-201 -92 -326 -215 -406 -400 -26 -60 -63 -213 -54 -223
6 -5 14 13 51 119 66 192 200 341 394 439 24 12 47 18 51 13 4 -4 14 -64 21
-133 19 -188 31 -171 24 35 -3 98 -7 180 -8 181 -1 1 -34 -13 -73 -31z"/>
<path d="M1831 2448 l1 -183 18 144 c11 79 21 145 23 148 7 6 103 -44 168 -88
72 -48 174 -159 221 -240 21 -35 50 -99 64 -144 32 -97 49 -120 40 -52 -24
164 -126 345 -257 454 -53 43 -237 143 -265 143 -12 0 -14 -32 -13 -182z"/>
<path d="M305 2466 c-41 -18 -92 -77 -105 -123 -39 -138 -33 -344 15 -508 5
-16 0 -23 -27 -33 -54 -19 -105 -68 -135 -130 -23 -47 -28 -70 -28 -132 0 -64
5 -85 33 -144 39 -84 136 -183 235 -240 67 -39 67 -39 67 -83 0 -69 20 -178
46 -256 13 -39 24 -74 24 -78 0 -4 -37 -20 -82 -35 -94 -31 -128 -59 -128
-104 0 -35 38 -80 68 -80 10 0 67 16 127 35 101 32 109 33 121 17 7 -9 13 -19
13 -22 0 -3 -28 -18 -64 -34 -107 -48 -137 -99 -90 -154 16 -20 36 -32 51 -32
13 0 70 22 126 49 78 38 104 46 106 36 3 -12 11 -11 45 6 l41 22 -29 23 c-17
13 -38 24 -48 24 -10 0 -65 -23 -123 -51 -98 -48 -141 -56 -132 -26 2 6 52 36
110 65 l106 54 -46 59 c-26 32 -54 59 -63 59 -9 0 -67 -16 -129 -36 -75 -24
-116 -32 -123 -25 -22 22 6 39 114 71 63 18 115 34 117 35 1 1 -11 34 -27 73
-38 91 -59 194 -64 306 l-5 88 -60 32 c-179 97 -273 217 -271 350 1 110 68
194 169 211 22 4 40 8 40 10 0 2 -12 52 -27 112 -22 90 -27 131 -27 248 -1
159 11 213 55 258 28 27 34 29 90 25 47 -3 81 -15 159 -54 l98 -51 11 24 c6
13 11 28 11 33 0 13 -143 84 -209 104 -65 19 -115 20 -156 2z"/>
<path d="M2540 2461 c-54 -17 -173 -74 -197 -93 -10 -8 -9 -16 3 -39 l14 -29
41 26 c22 14 75 39 117 56 60 24 86 29 125 25 59 -5 79 -26 103 -106 24 -81
15 -314 -18 -439 -16 -62 -21 -95 -14 -97 6 -2 30 -9 53 -15 63 -16 117 -72
138 -143 28 -96 1 -184 -84 -279 -46 -52 -175 -144 -216 -154 -21 -5 -22 -13
-28 -117 -6 -120 -31 -227 -72 -308 -30 -58 -30 -59 -7 -59 9 -1 62 -15 117
-33 83 -27 101 -37 103 -55 2 -12 0 -22 -5 -22 -4 0 -64 18 -133 39 l-125 39
-15 -22 c-8 -11 -32 -40 -54 -63 -34 -38 -36 -43 -20 -49 105 -38 204 -96 204
-120 0 -23 -21 -17 -134 36 -59 27 -113 50 -120 50 -16 0 -66 -38 -66 -50 0
-14 63 -32 70 -20 4 6 47 -9 109 -40 56 -27 113 -50 127 -50 34 0 74 42 74 79
0 35 -42 75 -118 110 -53 25 -63 40 -39 59 10 8 41 2 120 -24 66 -21 117 -32
131 -28 58 14 78 84 37 127 -12 13 -58 36 -104 52 -45 15 -83 29 -85 30 -1 1
6 25 17 52 28 72 51 192 51 267 l0 65 63 33 c85 45 205 166 243 243 25 53 29
71 29 150 0 73 -4 98 -22 130 -27 50 -76 97 -130 124 -38 19 -41 24 -34 44 24
63 44 234 38 336 -8 163 -44 247 -121 282 -51 23 -95 23 -166 0z"/>
<path d="M462 2281 c30 -27 67 -68 83 -90 15 -23 31 -41 35 -41 4 0 12 19 19
41 10 34 10 44 -1 51 -18 13 -174 88 -183 88 -4 0 18 -22 47 -49z"/>
<path d="M2488 2285 c-47 -25 -89 -48 -91 -52 -7 -11 20 -73 31 -73 4 0 24 21
43 46 19 26 54 64 79 85 25 21 41 39 35 38 -5 0 -49 -20 -97 -44z"/>
<path d="M332 2283 c-4 -10 -6 -83 -6 -163 1 -122 5 -161 28 -245 14 -54 32
-104 38 -111 14 -12 118 -35 130 -28 3 2 6 44 6 93 0 48 5 98 11 109 6 12 14
48 17 81 l7 60 -51 63 c-56 71 -145 158 -162 158 -6 0 -14 -8 -18 -17z m184
-219 c4 -13 -1 -57 -10 -97 -20 -86 -24 -113 -25 -150 -1 -25 -4 -28 -28 -25
-35 4 -49 33 -74 151 -19 91 -26 267 -11 281 10 11 141 -130 148 -160z"/>
<path d="M2588 2247 c-31 -28 -77 -78 -103 -110 -44 -56 -46 -61 -39 -105 4
-26 13 -64 20 -86 8 -21 14 -78 14 -127 0 -49 3 -89 8 -89 13 1 124 29 128 32
11 12 55 206 64 283 13 114 0 255 -23 255 -7 0 -38 -24 -69 -53z m53 -84 c1
-107 -1 -143 -17 -223 -21 -103 -42 -144 -76 -148 -27 -3 -28 -2 -28 45 0 27
-7 75 -15 106 -23 87 -20 130 12 169 41 51 106 118 115 118 4 0 8 -30 9 -67z"/>
<path d="M934 2149 c-149 -36 -234 -170 -210 -332 9 -57 60 -136 100 -152 47
-19 234 -48 273 -42 99 16 219 105 259 192 62 132 8 261 -133 318 -56 23 -223
32 -289 16z m231 -54 c114 -30 165 -84 165 -177 0 -163 -227 -298 -412 -244
-131 38 -188 199 -117 326 53 94 210 134 364 95z"/>
<path d="M895 1944 c-38 -59 -71 -110 -73 -115 -5 -12 38 -71 49 -67 5 2 51
67 103 146 l93 142 -51 0 -51 0 -70 -106z"/>
<path d="M1036 1889 c-107 -160 -114 -178 -69 -179 7 0 60 71 118 158 95 142
104 158 88 170 -9 6 -20 12 -23 12 -4 0 -55 -73 -114 -161z"/>
<path d="M1822 2145 c-73 -21 -103 -38 -145 -84 -111 -123 -52 -308 128 -397
93 -46 134 -50 269 -25 123 23 148 39 187 120 33 67 31 178 -4 246 -54 106
-131 147 -282 152 -66 2 -118 -2 -153 -12z m249 -51 c109 -32 160 -100 160
-215 1 -145 -101 -230 -259 -215 -241 22 -388 254 -240 380 69 60 226 83 339
50z"/>
<path d="M1818 1947 c-38 -57 -68 -108 -68 -113 0 -6 12 -22 28 -36 l27 -27
93 140 92 139 -52 0 -53 0 -67 -103z"/>
<path d="M1961 1897 c-98 -148 -100 -152 -78 -163 12 -7 24 -11 28 -9 9 6 194
298 192 304 -1 3 -10 8 -21 12 -17 7 -34 -14 -121 -144z"/>
<path d="M1438 1951 c2 -42 6 -77 7 -79 1 -1 14 2 28 7 15 6 38 7 55 2 l29 -9
6 72 c3 39 4 72 3 72 0 1 -31 4 -67 6 l-66 5 5 -76z m80 1 c2 -14 -2 -22 -11
-22 -17 0 -30 27 -21 41 9 16 29 4 32 -19z"/>
<path d="M624 1918 c-18 -8 -23 -22 -29 -80 -3 -38 -4 -72 -2 -75 3 -2 20 2
38 10 l34 14 -3 71 c-4 76 -4 77 -38 60z"/>
<path d="M2350 1901 c0 -15 -3 -48 -6 -73 -6 -44 -6 -44 31 -55 l38 -12 -5 70
c-4 53 -10 73 -24 84 -28 21 -34 18 -34 -14z"/>
<path d="M1469 1807 c-8 -7 -34 -37 -56 -68 -23 -31 -61 -73 -84 -93 -23 -20
-39 -39 -35 -43 10 -10 402 -10 412 0 4 4 -9 21 -29 38 -21 17 -55 57 -77 89
-57 84 -94 106 -131 77z m78 -71 c15 -19 36 -48 46 -65 l17 -29 -62 -7 c-91
-10 -143 -4 -142 16 2 26 77 119 95 119 10 0 30 -15 46 -34z"/>
<path d="M673 1703 c9 -9 19 -14 23 -11 10 10 -6 28 -24 28 -15 0 -15 -1 1
-17z"/>
<path d="M2305 1709 c-4 -6 -4 -13 -1 -16 8 -8 36 5 36 17 0 13 -27 13 -35 -1z"/>
<path d="M267 1678 c-48 -13 -93 -58 -99 -98 -6 -38 2 -38 24 0 43 76 141 78
437 11 388 -89 688 -118 1057 -101 285 13 421 34 759 114 236 56 324 48 375
-36 19 -32 20 -32 20 -8 0 14 -9 39 -20 57 -50 83 -153 88 -435 20 -357 -87
-487 -102 -880 -101 -389 0 -555 20 -930 112 -139 34 -253 46 -308 30z"/>
<path d="M484 1445 c3 -13 11 -36 17 -52 l10 -27 39 45 c22 24 39 47 40 52 0
4 -25 7 -56 7 -55 0 -56 -1 -50 -25z"/>
<path d="M2446 1425 c20 -25 40 -45 44 -45 5 0 13 12 18 28 5 15 13 35 17 45
6 15 0 17 -55 17 l-61 0 37 -45z"/>
</g>
</svg>
