<svg xmlns="http://www.w3.org/2000/svg" xmlns:xlink="http://www.w3.org/1999/xlink" width="500" zoomAndPan="magnify" viewBox="0 0 375 374.999991" height="500" preserveAspectRatio="xMidYMid meet" version="1.0"><path fill="#000000" d="M 181.765625 62.671875 C 170.527344 63.523438 162.449219 64.847656 155.808594 66.917969 C 147.015625 69.660156 146.261719 69.960938 144.609375 71.386719 C 143.464844 72.375 142.824219 73.210938 142.285156 74.40625 C 141.613281 75.898438 141.425781 76.09375 140.34375 76.441406 C 138.335938 77.085938 129.074219 81.402344 125.496094 83.359375 C 118.589844 87.136719 111.480469 92.027344 105.679688 96.992188 C 98.070312 103.503906 87.554688 115.59375 83.796875 122.148438 C 83.175781 123.230469 82.371094 124.578125 82.007812 125.144531 L 81.347656 126.179688 L 79.101562 124.628906 C 77.867188 123.777344 76.378906 122.703125 75.792969 122.242188 C 75.203125 121.785156 73.582031 120.601562 72.183594 119.617188 C 66.878906 115.886719 61.761719 112.757812 55.957031 109.695312 C 55.132812 109.257812 54.332031 108.804688 54.183594 108.683594 C 53.363281 108.03125 45.34375 105.082031 42.570312 104.414062 C 40.492188 103.914062 36.707031 103.941406 34.902344 104.46875 C 31.929688 105.339844 28.847656 108.007812 27.335938 111.023438 C 25.980469 113.734375 24.15625 119.5 23.460938 123.292969 C 22.847656 126.65625 21.777344 135.714844 21.5 139.949219 C 21.246094 143.746094 21.359375 156.460938 21.660156 158.445312 C 21.714844 158.796875 21.835938 160.066406 21.933594 161.269531 C 22.304688 165.878906 23.46875 175.097656 24.160156 178.890625 C 25.265625 184.949219 27.933594 195.949219 29.632812 201.429688 C 30.472656 204.132812 31.378906 207.097656 31.644531 208.019531 L 32.132812 209.695312 L 30.453125 209.875 C 25.65625 210.386719 19.867188 211.933594 16.917969 213.492188 C 12.191406 215.992188 7.785156 220.351562 5.609375 224.683594 C 4.550781 226.789062 3.148438 231.113281 2.652344 233.800781 C 2.1875 236.308594 2.257812 242.222656 2.78125 244.921875 C 3.019531 246.152344 3.777344 248.859375 4.46875 250.929688 C 7.859375 261.144531 15.476562 270.605469 27.546875 279.59375 C 34.078125 284.453125 41.867188 289.015625 48.855469 292.070312 C 49.382812 292.296875 51.039062 293.0625 52.542969 293.769531 C 55.402344 295.113281 56.757812 295.636719 64.152344 298.265625 C 69.859375 300.292969 80.003906 303.316406 84.097656 304.210938 C 85.464844 304.507812 86.828125 304.808594 88.195312 305.113281 C 95.402344 306.746094 104.894531 308.503906 108.820312 308.933594 C 110.023438 309.0625 113.957031 309.542969 117.5625 309.996094 C 130.164062 311.574219 142.21875 312.507812 155.128906 312.902344 C 158.207031 312.996094 161.160156 313.128906 161.683594 313.195312 C 164.195312 313.515625 202.835938 313.621094 210.585938 313.328125 C 234.617188 312.421875 245.222656 311.644531 261.039062 309.625 C 264.015625 309.246094 267.621094 308.792969 269.050781 308.621094 C 271.742188 308.292969 285.160156 305.726562 288.035156 304.988281 C 288.9375 304.757812 291.027344 304.269531 292.679688 303.90625 C 295.402344 303.304688 298.203125 302.511719 306.730469 299.925781 C 308.296875 299.449219 311.644531 298.269531 314.167969 297.300781 C 316.695312 296.335938 318.839844 295.542969 318.929688 295.542969 C 319.125 295.542969 324.257812 293.179688 329.015625 290.898438 C 347.414062 282.074219 361.542969 269.921875 368.394531 257.023438 C 371.671875 250.851562 372.921875 245.789062 372.921875 238.710938 C 372.917969 232.859375 371.988281 228.96875 369.359375 223.828125 C 368.328125 221.816406 367.625 220.898438 365.484375 218.769531 C 360.675781 213.984375 356.191406 211.824219 348.214844 210.453125 C 346.003906 210.070312 343.886719 209.761719 343.503906 209.761719 C 342.695312 209.761719 342.683594 209.707031 343.207031 208.699219 C 343.421875 208.28125 344.105469 206.410156 344.722656 204.546875 C 345.671875 201.675781 346.292969 199.472656 347.992188 192.957031 C 349.078125 188.785156 350.515625 182.171875 350.992188 179.164062 C 351.3125 177.132812 351.765625 174.375 351.996094 173.027344 C 352.230469 171.683594 352.59375 168.976562 352.804688 167.015625 C 353.019531 165.058594 353.339844 162.226562 353.523438 160.722656 C 353.734375 158.984375 353.855469 154.007812 353.851562 147.0625 C 353.847656 137.242188 353.785156 135.675781 353.230469 131.628906 C 352.449219 125.921875 350.910156 118.480469 349.929688 115.644531 C 348.890625 112.65625 347.09375 109.160156 345.933594 107.871094 C 343.683594 105.382812 340.414062 104.035156 336.625 104.035156 C 333.683594 104.035156 331.277344 104.585938 326.828125 106.277344 C 322.699219 107.851562 313.007812 112.792969 311.652344 114.019531 C 311.414062 114.238281 311.117188 114.414062 311 114.414062 C 310.882812 114.414062 309.539062 115.230469 308.015625 116.226562 C 305.664062 117.765625 303.386719 119.367188 294.972656 125.425781 L 293.90625 126.195312 L 293.15625 124.949219 C 287.675781 115.859375 283.691406 110.652344 276.925781 103.71875 C 269.542969 96.15625 261.328125 89.988281 250.0625 83.554688 C 246.925781 81.761719 236.238281 76.714844 235.578125 76.714844 C 235.476562 76.714844 234.960938 76.511719 234.433594 76.261719 C 233.742188 75.929688 233.328125 75.460938 232.9375 74.554688 C 231.761719 71.804688 229.714844 70.15625 226.019531 68.988281 C 219.765625 67.003906 211.601562 64.855469 208.535156 64.382812 C 207.636719 64.242188 206.160156 64.011719 205.257812 63.867188 C 199.960938 63.023438 186.289062 62.328125 181.765625 62.671875 M 182.035156 73.359375 C 178.824219 73.585938 174.328125 74.046875 171.792969 74.417969 C 166.800781 75.140625 156.207031 77.6875 153.214844 78.882812 L 151.4375 79.589844 L 151.265625 83.277344 C 151.171875 85.300781 151.011719 94.398438 150.90625 103.488281 C 150.804688 112.578125 150.671875 120.386719 150.613281 120.835938 C 150.445312 122.175781 150.421875 148.792969 150.589844 149.0625 C 150.675781 149.203125 151.132812 149.390625 151.605469 149.484375 C 154.675781 150.101562 161.152344 153.113281 165.308594 155.859375 C 167.144531 157.074219 171.183594 160.839844 172.210938 162.300781 C 172.65625 162.929688 173.097656 163.125 174.796875 163.441406 C 181.433594 164.683594 188.46875 164.972656 194.917969 164.269531 C 201.625 163.539062 201.242188 163.699219 204.902344 160.167969 C 209.832031 155.414062 215.183594 152.175781 221.59375 150.070312 C 224.5625 149.089844 224.792969 148.964844 224.804688 148.3125 C 224.863281 145.441406 224.742188 127.769531 224.65625 127.121094 C 224.597656 126.667969 224.519531 118.617188 224.480469 109.226562 C 224.4375 99.835938 224.339844 89.40625 224.257812 86.050781 C 224.117188 80.355469 224.070312 79.921875 223.5625 79.550781 C 222.820312 79.007812 217.566406 77.390625 214.402344 76.726562 C 212.980469 76.429688 211.445312 76.0625 210.996094 75.914062 C 209.628906 75.457031 204.90625 74.582031 201.433594 74.140625 C 194.710938 73.292969 187.273438 72.992188 182.035156 73.359375 M 139.828125 88.355469 C 132.304688 91.984375 129.636719 93.363281 126.472656 95.265625 C 115.296875 101.972656 105.800781 110.628906 97.296875 121.855469 C 90.6875 130.582031 85.09375 141.394531 81.34375 152.6875 C 79.707031 157.605469 77.050781 169.929688 76.5 175.132812 C 76.304688 176.988281 76.332031 177.25 76.71875 177.25 C 77.519531 177.25 78.648438 176.574219 78.769531 176.019531 C 78.839844 175.71875 79.332031 173.445312 79.871094 170.964844 C 81.058594 165.484375 84.164062 156.085938 86.824219 149.929688 C 93.839844 133.6875 107.375 116.8125 121.113281 107.175781 C 122.46875 106.226562 123.867188 105.195312 124.230469 104.878906 C 124.589844 104.566406 124.992188 104.308594 125.125 104.308594 C 125.253906 104.308594 126.128906 103.824219 127.0625 103.238281 C 130.882812 100.832031 136.652344 97.886719 137.054688 98.132812 C 137.1875 98.21875 137.382812 99.117188 137.480469 100.136719 C 137.582031 101.152344 137.71875 102.355469 137.78125 102.804688 C 137.847656 103.253906 138.085938 105.101562 138.3125 106.902344 C 138.539062 108.707031 139.160156 113.5625 139.695312 117.695312 C 140.226562 121.824219 140.972656 128.15625 141.347656 131.761719 C 141.722656 135.371094 142.078125 138.441406 142.136719 138.59375 C 142.285156 138.96875 142.28125 139.097656 142.417969 120.015625 C 142.488281 110.699219 142.617188 99.480469 142.707031 95.085938 C 142.800781 90.691406 142.773438 87.097656 142.648438 87.101562 C 142.523438 87.101562 141.257812 87.667969 139.828125 88.355469 M 232.816406 105.035156 C 232.996094 123.496094 233.277344 139.078125 233.421875 138.59375 C 233.46875 138.441406 233.699219 136.292969 233.9375 133.8125 C 234.175781 131.332031 234.488281 128.445312 234.632812 127.390625 C 234.773438 126.339844 235.136719 123.453125 235.441406 120.972656 C 235.742188 118.492188 236.484375 112.410156 237.089844 107.457031 C 237.695312 102.5 238.292969 98.347656 238.414062 98.226562 C 238.535156 98.105469 239.730469 98.578125 241.070312 99.28125 C 242.410156 99.980469 244.183594 100.910156 245.007812 101.34375 C 254.570312 106.363281 263.832031 114.183594 273.324219 125.253906 C 275.058594 127.273438 279.777344 133.828125 281.25 136.257812 C 283.066406 139.257812 285.652344 143.941406 286.148438 145.136719 C 286.464844 145.894531 287.277344 147.621094 287.957031 148.976562 C 290.65625 154.351562 293.417969 162.472656 295.269531 170.472656 C 296.023438 173.734375 296.640625 176.457031 296.640625 176.527344 C 296.640625 176.597656 297.195312 176.839844 297.871094 177.070312 C 299.367188 177.582031 299.316406 178.0625 298.417969 171.878906 C 297.550781 165.933594 296.8125 162.800781 293.757812 152.117188 C 291.59375 144.566406 285.144531 131.558594 280.191406 124.761719 C 275.132812 117.828125 273.296875 115.648438 268.230469 110.589844 C 258.546875 100.921875 250.441406 95.371094 236.53125 88.886719 C 235.257812 88.292969 233.863281 87.636719 233.429688 87.425781 L 232.644531 87.046875 Z M 171.722656 100.949219 C 171.292969 101.058594 171.246094 101.503906 171.246094 105.421875 L 171.246094 109.769531 L 182.855469 109.769531 C 189.242188 109.769531 194.46875 109.816406 194.46875 109.867188 C 194.46875 110.058594 191.398438 116.742188 191.1875 117.011719 C 191.070312 117.160156 190.332031 118.699219 189.546875 120.425781 C 188.542969 122.621094 187.523438 124.804688 186.488281 126.984375 C 185.589844 128.859375 184.546875 131.136719 184.167969 132.035156 C 183.785156 132.9375 182.859375 134.90625 182.101562 136.40625 C 181.347656 137.910156 180.332031 140.0625 179.839844 141.1875 C 179.351562 142.316406 178.417969 144.34375 177.769531 145.695312 C 177.339844 146.585938 176.914062 147.476562 176.488281 148.367188 C 176.433594 148.480469 179.003906 148.542969 182.203125 148.503906 L 188.019531 148.429688 L 189.484375 145.148438 C 190.289062 143.347656 191.234375 141.195312 191.585938 140.367188 C 191.9375 139.542969 193.109375 136.960938 194.1875 134.632812 C 195.269531 132.304688 197.113281 128.246094 198.28125 125.617188 C 200.179688 121.359375 201.488281 118.476562 204.230469 112.503906 C 204.679688 111.527344 205.210938 110.261719 205.417969 109.6875 C 205.714844 108.851562 205.824219 108.746094 205.980469 109.144531 C 206.089844 109.414062 206.183594 107.636719 206.195312 105.191406 L 206.214844 100.75 L 189.207031 100.789062 C 179.855469 100.808594 171.988281 100.882812 171.722656 100.949219 M 46.300781 118.960938 C 47.480469 120.257812 49.246094 122.285156 50.222656 123.464844 L 54.199219 128.277344 C 59.460938 134.640625 64.421875 141.5 67.816406 147.109375 C 69.066406 149.171875 70.199219 150.898438 70.339844 150.945312 C 70.476562 150.992188 71.160156 149.335938 71.859375 147.269531 C 72.558594 145.203125 73.640625 142.21875 74.261719 140.640625 C 76.054688 136.097656 76.03125 136.234375 75.15625 135.503906 C 74.738281 135.15625 73.660156 134.367188 72.757812 133.75 C 71.859375 133.132812 70.738281 132.300781 70.269531 131.898438 C 67.75 129.726562 57.558594 123.144531 52.003906 120.105469 C 49.820312 118.914062 44.757812 116.601562 44.324219 116.601562 C 44.234375 116.601562 45.125 117.664062 46.300781 118.960938 M 329.625 117.148438 C 329.242188 117.449219 328.757812 117.695312 328.546875 117.695312 C 327.292969 117.695312 316.980469 123.484375 311.132812 127.46875 C 307.097656 130.222656 301.703125 134.246094 300.136719 135.675781 L 299.402344 136.347656 L 299.902344 137.332031 C 301.078125 139.636719 303.425781 146.386719 304.324219 150.046875 L 304.652344 151.390625 L 305.179688 150.730469 C 305.46875 150.367188 306.660156 148.53125 307.824219 146.652344 C 313.519531 137.472656 318.324219 131.113281 325.933594 122.667969 C 329.164062 119.082031 331.117188 116.601562 330.710938 116.601562 C 330.496094 116.601562 330.003906 116.847656 329.625 117.148438 M 35.503906 120.835938 C 33.082031 129.441406 32.164062 136.566406 32.09375 147.335938 C 32.03125 156.515625 32.507812 162.890625 33.855469 170.832031 C 34.160156 172.632812 34.53125 174.847656 34.675781 175.746094 C 34.957031 177.492188 35.863281 181.753906 36.996094 186.675781 C 39.253906 196.480469 43.707031 209.839844 44.878906 210.324219 C 45.1875 210.453125 46.855469 210.753906 48.582031 210.996094 C 52.167969 211.5 60.03125 212.910156 61.355469 213.292969 C 61.84375 213.433594 62.234375 213.464844 62.230469 213.359375 C 62.222656 213.257812 62.050781 211.882812 61.847656 210.304688 C 61.367188 206.550781 61.34375 198.125 61.792969 191.457031 C 62.175781 185.742188 62.402344 184.859375 64.113281 182.320312 C 64.773438 181.34375 64.945312 180.742188 65.101562 178.855469 C 65.34375 175.886719 66.8125 165.351562 67.136719 164.21875 C 67.273438 163.734375 67.324219 163.058594 67.242188 162.714844 C 67.042969 161.835938 65.179688 158.230469 63.585938 155.632812 C 62.847656 154.425781 62.242188 153.394531 62.242188 153.335938 C 62.242188 153.136719 56.578125 144.625 55.160156 142.691406 C 49.691406 135.238281 43.859375 128.152344 39.078125 123.15625 L 35.8125 119.742188 Z M 335.945312 123.5 C 332.703125 126.914062 329.324219 130.75 327.546875 133.039062 C 326.628906 134.214844 325.707031 135.390625 324.78125 136.5625 C 320.253906 142.296875 313.789062 151.917969 310.046875 158.488281 C 307.742188 162.53125 307.796875 162.03125 309.019531 168.507812 C 309.40625 170.535156 309.859375 174.039062 310.035156 176.292969 C 310.339844 180.285156 310.378906 180.457031 311.53125 182.851562 C 313.042969 185.992188 313.230469 186.738281 313.574219 191.046875 C 314.269531 199.765625 314.082031 208 313.082031 212.421875 C 312.789062 213.707031 312.78125 213.703125 314.128906 213.300781 C 314.652344 213.144531 318.632812 212.410156 322.972656 211.671875 C 327.3125 210.929688 330.917969 210.269531 330.992188 210.199219 C 331.253906 209.933594 336.03125 195.882812 336.667969 193.503906 C 337.339844 190.992188 338.21875 187.015625 340.078125 178.070312 C 341.605469 170.714844 342.5625 162.667969 342.960938 153.753906 C 343.046875 151.878906 343.152344 149.542969 343.195312 148.566406 C 343.332031 145.585938 342.859375 136.3125 342.40625 133.152344 C 342.171875 131.507812 341.660156 128.679688 341.273438 126.867188 C 340.886719 125.050781 340.425781 122.832031 340.253906 121.933594 C 340.050781 120.871094 339.796875 120.269531 339.53125 120.222656 C 339.308594 120.183594 337.691406 121.660156 335.945312 123.5 M 121.796875 154.851562 C 115.296875 155.523438 109.402344 157.355469 104.089844 160.351562 C 96.8125 164.453125 90.660156 172.90625 88.78125 181.378906 C 87.691406 186.296875 87.554688 187.527344 87.542969 192.414062 C 87.519531 200.910156 89.039062 207.082031 92.84375 213.992188 C 94.070312 216.222656 94.890625 217.269531 97.390625 219.796875 C 99.347656 221.777344 100.867188 223.070312 101.628906 223.410156 C 102.285156 223.699219 105.152344 224.382812 108.007812 224.933594 C 110.859375 225.480469 116.019531 226.484375 119.476562 227.160156 C 127.734375 228.777344 130.332031 228.921875 133.84375 227.964844 C 145.011719 224.921875 153.390625 220.410156 160.28125 213.738281 C 163.429688 210.6875 165.605469 207.875 167.878906 203.917969 C 170.960938 198.550781 172.296875 192.621094 171.945312 185.855469 C 171.585938 178.921875 169.828125 173.390625 166.566406 168.917969 C 165.097656 166.910156 161.84375 163.828125 159.625 162.347656 C 154.632812 159.019531 146.195312 156.214844 138.285156 155.253906 C 134.058594 154.738281 125.011719 154.519531 121.796875 154.851562 M 239.132812 154.988281 C 231.558594 155.792969 225.859375 157.273438 219.796875 160.007812 C 213.453125 162.867188 208.257812 168.273438 205.6875 174.679688 C 203.78125 179.425781 203.375 181.605469 203.378906 187.085938 C 203.378906 192.402344 203.632812 193.945312 205.300781 198.832031 C 206.523438 202.425781 207.765625 204.914062 209.726562 207.710938 C 215.792969 216.363281 224.574219 222.425781 237.359375 226.789062 C 244.074219 229.082031 245.609375 229.097656 256.617188 226.984375 C 260.675781 226.207031 265.65625 225.261719 267.683594 224.882812 C 273.460938 223.808594 274.152344 223.484375 277.238281 220.429688 C 280.035156 217.667969 282.832031 213.765625 284.347656 210.527344 C 285.347656 208.390625 287.179688 201.347656 287.644531 197.847656 C 288.574219 190.878906 286.824219 179.773438 283.863281 173.835938 C 281.917969 169.929688 277.890625 165.125 274.328125 162.464844 C 271.050781 160.015625 264.371094 156.953125 260.085938 155.9375 C 254.5625 154.625 246.144531 154.246094 239.132812 154.988281 M 123.164062 161.140625 C 117.621094 161.816406 111.707031 163.480469 108.410156 165.285156 C 103.5625 167.945312 99.601562 171.945312 97.324219 176.480469 C 94.628906 181.839844 93.585938 186.269531 93.570312 192.414062 C 93.554688 198.980469 94.597656 203.519531 97.371094 208.941406 C 101.207031 216.441406 107.617188 220.863281 116.984375 222.460938 C 122.394531 223.382812 130.878906 222.609375 136.90625 220.644531 C 143.5 218.492188 153.058594 212.511719 157.507812 207.75 C 161.753906 203.207031 163.699219 199.546875 165.140625 193.367188 C 165.875 190.238281 165.824219 183.851562 165.046875 180.800781 C 163.316406 174.011719 160.304688 169.96875 154.53125 166.664062 C 150.695312 164.46875 143.964844 162.546875 136.550781 161.527344 C 132.875 161.019531 125.804688 160.816406 123.164062 161.140625 M 241.730469 161.039062 C 241.355469 161.101562 239.695312 161.335938 238.042969 161.566406 C 229.019531 162.816406 223.042969 164.878906 218.109375 168.441406 C 215.359375 170.425781 213.628906 172.558594 211.960938 176.019531 C 210.414062 179.230469 209.738281 182.257812 209.617188 186.539062 C 209.351562 195.671875 212.679688 203.15625 219.917969 209.726562 C 223.796875 213.246094 225.941406 214.675781 232.074219 217.839844 C 237.144531 220.453125 239.613281 221.246094 246.101562 222.351562 C 251.046875 223.191406 256.664062 223 261.261719 221.832031 C 265.289062 220.808594 267.027344 220.050781 270.105469 217.980469 C 274.203125 215.226562 276.613281 212.167969 278.960938 206.753906 C 281.054688 201.914062 281.75 197.652344 281.539062 190.867188 C 281.414062 186.6875 281.296875 185.757812 280.546875 183.003906 C 279.328125 178.53125 277.300781 174.402344 274.785156 171.277344 C 273.109375 169.191406 267.425781 165.171875 265.085938 164.417969 C 264.484375 164.222656 263.652344 163.890625 263.234375 163.679688 C 262.542969 163.328125 259.160156 162.296875 257.171875 161.828125 C 254.011719 161.085938 244.519531 160.601562 241.730469 161.039062 M 123.574219 168.535156 C 121.921875 168.621094 120.324219 168.78125 120.023438 168.882812 C 119.410156 169.089844 117.074219 172.175781 115.039062 175.472656 C 111.035156 181.949219 108.855469 185.515625 107.269531 188.179688 C 106.6875 189.15625 105.460938 191.121094 104.546875 192.550781 C 101.292969 197.628906 101.210938 197.816406 101.386719 199.90625 C 101.597656 202.390625 102.960938 205.839844 104.554688 207.917969 C 105.261719 208.835938 105.96875 209.628906 106.132812 209.683594 C 106.464844 209.792969 109.230469 205.609375 113.859375 198.011719 C 115.550781 195.234375 117.703125 191.730469 118.640625 190.226562 L 123.078125 183.125 L 127.941406 175.335938 C 129.113281 173.460938 130.546875 171.175781 131.125 170.265625 C 131.707031 169.351562 132.179688 168.523438 132.179688 168.417969 C 132.179688 168.21875 128.492188 168.269531 123.574219 168.535156 M 241.046875 168.660156 C 239.394531 168.847656 237.90625 169.015625 237.738281 169.027344 C 237.417969 169.054688 234.617188 173.136719 232.84375 176.15625 C 232.269531 177.132812 231.160156 178.917969 230.378906 180.117188 C 229.597656 181.320312 227.511719 184.640625 225.742188 187.496094 C 223.972656 190.351562 222.070312 193.363281 221.511719 194.1875 C 220.953125 195.015625 220.222656 196.230469 219.890625 196.886719 L 219.28125 198.085938 L 220.519531 199.902344 C 221.789062 201.753906 226.125 206.207031 226.660156 206.207031 C 226.824219 206.207031 227.101562 205.933594 227.277344 205.59375 C 227.457031 205.257812 228.609375 203.382812 229.847656 201.429688 C 233.8125 195.152344 239.039062 186.761719 240.910156 183.671875 C 241.90625 182.015625 243.421875 179.589844 244.277344 178.273438 C 247.519531 173.28125 248.949219 171.070312 249.839844 169.675781 L 250.761719 168.234375 L 247.40625 168.273438 C 245.5625 168.296875 242.699219 168.46875 241.046875 168.660156 M 140.921875 170.148438 C 140.34375 171.289062 136.765625 177.171875 134.777344 180.253906 C 132.488281 183.804688 129.128906 189.148438 127.410156 191.976562 C 126.628906 193.269531 124.71875 196.351562 123.167969 198.832031 C 115.867188 210.511719 113.917969 213.679688 113.894531 213.917969 C 113.859375 214.273438 116.855469 214.992188 118.566406 215.039062 L 120.242188 215.085938 L 121.5 213.3125 C 122.847656 211.414062 123.527344 210.355469 129.667969 200.609375 C 131.847656 197.152344 134.636719 192.726562 135.867188 190.773438 C 138.292969 186.925781 140.386719 183.597656 143.597656 178.480469 C 144.730469 176.675781 146.128906 174.457031 146.703125 173.542969 C 147.28125 172.632812 147.75 171.75 147.75 171.585938 C 147.75 171.320312 142.289062 169.320312 141.605469 169.332031 C 141.453125 169.335938 141.148438 169.703125 140.921875 170.148438 M 256.011719 175.40625 C 254.058594 178.449219 251.683594 182.230469 250.734375 183.808594 C 249.785156 185.382812 247.414062 189.195312 245.46875 192.277344 C 243.523438 195.355469 241.4375 198.675781 240.828125 199.652344 C 240.089844 200.839844 239.34375 202.023438 238.589844 203.203125 C 237.964844 204.179688 236.824219 205.960938 236.054688 207.164062 C 235.285156 208.367188 234.53125 209.683594 234.382812 210.085938 C 234.128906 210.757812 234.1875 210.875 235.054688 211.410156 C 235.882812 211.921875 237.960938 212.808594 239.304688 213.222656 C 239.804688 213.375 240.140625 212.933594 243.28125 207.984375 C 244.421875 206.179688 245.917969 203.84375 246.601562 202.792969 C 247.285156 201.742188 248.65625 199.527344 249.65625 197.875 C 251.78125 194.355469 255.351562 188.621094 256.632812 186.675781 C 257.445312 185.441406 258.5 183.734375 263.628906 175.335938 C 264.5 173.910156 265.214844 172.558594 265.21875 172.332031 C 265.222656 171.929688 260.824219 169.875 259.960938 169.875 C 259.742188 169.875 257.964844 172.363281 256.011719 175.40625 M 194.058594 173.089844 C 191.136719 173.445312 181.890625 173.375 179.375 172.980469 C 178.148438 172.789062 178.121094 172.914062 178.890625 175.320312 C 180.085938 179.0625 180.378906 181.484375 180.359375 187.394531 L 180.339844 193.03125 L 181.324219 192.761719 C 181.867188 192.613281 182.433594 192.398438 182.582031 192.285156 C 182.878906 192.058594 184.914062 191.578125 186.679688 191.320312 C 188.082031 191.117188 191.472656 191.769531 193.539062 192.640625 C 194.425781 193.015625 195.179688 193.292969 195.214844 193.257812 C 195.25 193.222656 195.144531 191.789062 194.984375 190.070312 C 194.820312 188.355469 194.765625 185.902344 194.863281 184.625 C 195.035156 182.359375 196.460938 174.789062 196.960938 173.46875 C 197.101562 173.101562 197.179688 172.785156 197.140625 172.761719 C 197.097656 172.742188 195.710938 172.886719 194.058594 173.089844 M 76.054688 186.441406 C 72.234375 187.691406 71.644531 188.230469 71.425781 190.65625 C 70.917969 196.363281 70.972656 206.941406 71.511719 207.820312 C 71.636719 208.023438 73.078125 207.710938 76.007812 206.84375 L 80.320312 205.570312 L 80.164062 204.726562 C 79.4375 200.867188 79.140625 196.144531 79.300781 190.976562 C 79.390625 187.933594 79.371094 185.449219 79.253906 185.457031 C 79.136719 185.460938 77.699219 185.90625 76.054688 186.441406 M 296.042969 190.589844 C 296.183594 196.578125 295.71875 202.277344 294.84375 205.160156 C 294.742188 205.496094 294.9375 205.664062 295.605469 205.808594 C 296.101562 205.917969 298.09375 206.480469 300.035156 207.0625 C 301.976562 207.644531 303.617188 208.066406 303.6875 207.996094 C 303.753906 207.929688 303.925781 205.746094 304.0625 203.148438 C 304.304688 198.644531 304.007812 189.726562 303.578125 188.605469 C 303.339844 187.984375 301.867188 187.277344 298.964844 186.394531 C 297.613281 185.984375 296.371094 185.597656 296.210938 185.535156 C 296.003906 185.457031 295.953125 186.972656 296.042969 190.589844 M 184.085938 201.554688 C 182.019531 202.628906 180.929688 203.890625 178.765625 207.710938 C 177.742188 209.515625 176.628906 211.480469 176.289062 212.082031 C 175.257812 213.894531 171.058594 219.609375 169.328125 221.550781 C 167.40625 223.703125 162.945312 227.601562 159.992188 229.707031 C 158.835938 230.53125 157.976562 231.285156 158.078125 231.382812 C 158.183594 231.480469 161.957031 231.789062 166.464844 232.066406 C 177.363281 232.738281 198.839844 232.734375 209.753906 232.058594 C 216.632812 231.632812 218.082031 231.457031 217.253906 231.160156 C 216.671875 230.949219 213.425781 228.503906 211.40625 226.753906 C 205.683594 221.792969 200.53125 215.25 197.316406 208.855469 C 195.722656 205.6875 194.074219 203.496094 192.382812 202.296875 C 190.671875 201.085938 189.707031 200.789062 187.5 200.777344 C 185.917969 200.773438 185.328125 200.90625 184.085938 201.554688 M 80.410156 214.527344 C 75.9375 215.917969 74.746094 216.367188 74.988281 216.574219 C 75.113281 216.679688 76.507812 217.117188 78.085938 217.539062 C 79.664062 217.964844 82.113281 218.664062 83.523438 219.09375 C 84.9375 219.523438 86.148438 219.820312 86.214844 219.753906 C 86.28125 219.6875 86.023438 219.21875 85.640625 218.71875 C 85.257812 218.214844 84.554688 216.882812 84.078125 215.761719 C 83.605469 214.640625 83.199219 213.710938 83.179688 213.699219 C 83.15625 213.6875 81.910156 214.0625 80.410156 214.527344 M 290.574219 216.855469 C 289.714844 218.511719 289.101562 219.867188 289.207031 219.871094 C 289.4375 219.871094 298.996094 216.933594 299.777344 216.621094 C 300.222656 216.441406 300.039062 216.296875 298.730469 215.808594 C 297.855469 215.480469 296.199219 214.957031 295.046875 214.640625 C 294.210938 214.414062 293.378906 214.183594 292.542969 213.953125 C 292.253906 213.875 291.675781 214.730469 290.574219 216.855469 M 33.148438 220.574219 C 32.695312 220.636719 31.164062 220.824219 29.742188 220.988281 C 21.933594 221.894531 16.175781 225.902344 14.1875 231.804688 C 13.375 234.222656 12.71875 238.296875 12.9375 239.589844 L 13.121094 240.679688 L 14.023438 238.441406 C 15.664062 234.375 18.273438 231.261719 21.28125 229.785156 C 29 225.996094 38.589844 225.691406 53.363281 228.765625 C 54.414062 228.984375 56.761719 229.460938 58.574219 229.824219 C 61.722656 230.457031 64.753906 231.203125 68.933594 232.371094 C 69.988281 232.667969 72.570312 233.359375 74.671875 233.914062 C 76.777344 234.46875 80.09375 235.394531 82.046875 235.972656 C 90.433594 238.445312 104.515625 241.464844 118.382812 243.769531 C 134.351562 246.417969 142.996094 247.351562 161.957031 248.472656 C 172.007812 249.066406 203.375 249.148438 212.226562 248.601562 C 232.953125 247.328125 236.921875 246.933594 251.0625 244.738281 C 266.03125 242.414062 282.816406 238.910156 294.046875 235.761719 C 296.09375 235.191406 298.144531 234.625 300.191406 234.066406 C 305.207031 232.691406 308.011719 231.917969 310.984375 231.089844 C 313.039062 230.515625 316.273438 229.824219 324.644531 228.167969 C 333.441406 226.429688 342.53125 226.246094 348.636719 227.6875 C 349.511719 227.894531 351.292969 228.519531 352.597656 229.082031 C 354.65625 229.964844 355.273438 230.40625 357.296875 232.429688 C 359.65625 234.792969 360.527344 236.191406 361.582031 239.320312 L 362.070312 240.769531 L 362.148438 238.21875 C 362.355469 231.589844 358.945312 226.023438 352.871094 223.074219 C 348.722656 221.058594 345.28125 220.5 337.621094 220.605469 C 331.585938 220.6875 326.914062 221.144531 322.730469 222.066406 C 322.128906 222.195312 320.410156 222.566406 318.90625 222.890625 C 313.992188 223.941406 303.140625 226.664062 299.375 227.792969 C 288.746094 230.96875 272.269531 234.789062 258.121094 237.351562 C 252.996094 238.28125 238.851562 240.164062 232.441406 240.777344 C 214.105469 242.519531 206.746094 242.859375 187.089844 242.859375 C 167.246094 242.859375 157.40625 242.332031 139.828125 240.335938 C 128.65625 239.066406 121.363281 238.132812 118.65625 237.621094 C 117.90625 237.480469 116.0625 237.121094 114.558594 236.824219 C 113.054688 236.527344 108.691406 235.667969 104.859375 234.914062 C 101.027344 234.160156 95.742188 232.976562 93.113281 232.277344 C 90.484375 231.582031 87.902344 230.914062 87.375 230.796875 C 83.703125 229.964844 80.332031 229.113281 78.222656 228.484375 C 65.492188 224.683594 53.625 221.945312 46.261719 221.101562 C 42.445312 220.667969 34.699219 220.351562 33.148438 220.574219 M 79.246094 246.984375 C 79.097656 247.171875 78.464844 248.273438 77.84375 249.4375 L 76.714844 251.546875 L 77.628906 251.929688 C 80.859375 253.28125 94.402344 256.941406 98.984375 257.707031 C 99.585938 257.804688 100.449219 257.996094 100.898438 258.132812 C 101.347656 258.265625 102.761719 258.558594 104.039062 258.78125 C 105.316406 259.007812 107.40625 259.382812 108.683594 259.621094 C 125.078125 262.660156 142.296875 264.78125 159.5 265.886719 C 178.9375 267.132812 202.386719 267.03125 221.785156 265.613281 C 246.730469 263.789062 277.3125 258.574219 295.414062 253.054688 C 297.214844 252.503906 298.738281 252.007812 298.792969 251.953125 C 298.851562 251.898438 298.523438 251.265625 298.066406 250.542969 C 297.609375 249.824219 296.949219 248.644531 296.601562 247.917969 C 295.851562 246.359375 296.621094 246.328125 289.128906 248.21875 C 279.773438 250.574219 269.617188 252.742188 263.257812 253.738281 C 262.253906 253.894531 261.269531 254.082031 261.074219 254.152344 C 259.878906 254.578125 249.460938 256.066406 241.046875 257.007812 C 217.710938 259.621094 212.976562 259.878906 188.046875 259.886719 C 167.691406 259.890625 159.847656 259.636719 150.484375 258.667969 C 125.398438 256.070312 125.519531 256.085938 104.175781 252.234375 C 101.171875 251.691406 94.554688 250.210938 89.46875 248.945312 C 84.382812 247.675781 80.066406 246.640625 79.871094 246.640625 C 79.679688 246.640625 79.398438 246.796875 79.246094 246.984375 " fill-opacity="1" fill-rule="evenodd"/></svg>