<svg xmlns="http://www.w3.org/2000/svg" xmlns:xlink="http://www.w3.org/1999/xlink" width="500" zoomAndPan="magnify" viewBox="0 0 375 374.999991" height="500" preserveAspectRatio="xMidYMid meet" version="1.0"><path fill="#000000" d="M 181.132812 39.007812 C 176.597656 39.332031 165.890625 40.816406 161.148438 41.78125 C 157.515625 42.519531 153.433594 43.789062 153 44.3125 C 152.707031 44.664062 152.640625 49.609375 152.636719 71.984375 L 152.628906 99.226562 L 153.226562 99.863281 C 153.859375 100.535156 155.199219 101.199219 159.523438 102.992188 C 163.90625 104.804688 166.394531 106.445312 171.984375 111.207031 C 173.296875 112.324219 174.746094 113.433594 175.207031 113.667969 C 176.792969 114.484375 179.738281 114.730469 187.890625 114.738281 C 194.574219 114.742188 196.207031 114.667969 198.101562 114.265625 C 200.820312 113.6875 201.429688 113.390625 203.214844 111.777344 C 205.328125 109.867188 211.046875 105.554688 212.683594 104.644531 C 213.484375 104.195312 215.75 103.199219 217.71875 102.425781 C 221.832031 100.8125 222.59375 100.203125 222.851562 98.316406 C 223.140625 96.214844 223.054688 45.582031 222.757812 44.8125 C 222.425781 43.9375 221.480469 43.539062 217.078125 42.433594 C 212.5 41.28125 205.3125 40.027344 200.222656 39.496094 C 196.335938 39.085938 184.328125 38.78125 181.132812 39.007812 M 145.335938 45.921875 C 135.492188 49.511719 129.09375 52.597656 120.8125 57.746094 C 114.199219 61.859375 110.09375 65.097656 104.910156 70.285156 C 100.769531 74.429688 99.085938 76.515625 95.1875 82.308594 C 91.335938 88.027344 90.820312 88.929688 88.121094 94.632812 C 84.199219 102.921875 82.375 108.179688 80.953125 115.304688 C 80.257812 118.792969 80.007812 120.476562 79.453125 125.449219 C 79.355469 126.316406 79.425781 126.625 79.742188 126.746094 C 80.472656 127.027344 80.894531 126.21875 81.851562 122.710938 C 83.199219 117.78125 83.839844 115.835938 85.679688 111.0625 C 87.144531 107.273438 91.152344 98.84375 93.039062 95.589844 C 94.816406 92.523438 98.875 86.671875 101.695312 83.101562 C 103.917969 80.289062 112.417969 71.890625 115.191406 69.769531 C 118.414062 67.300781 123.933594 63.652344 127.574219 61.578125 C 132.4375 58.808594 141.167969 54.726562 141.503906 55.066406 C 141.585938 55.148438 142.007812 57.761719 142.441406 60.875 C 142.875 63.992188 143.757812 70.355469 144.40625 75.019531 C 145.054688 79.683594 145.714844 84.691406 145.867188 86.152344 C 146.023438 87.609375 146.222656 89.097656 146.3125 89.464844 L 146.472656 90.125 L 146.675781 89.464844 C 146.914062 88.679688 147.003906 46.765625 146.769531 46.152344 C 146.605469 45.734375 146.085938 45.648438 145.335938 45.921875 M 229.097656 46.015625 C 228.78125 46.210938 228.710938 49.535156 228.644531 67.125 C 228.570312 86.222656 228.652344 91.082031 229.039062 90.695312 C 229.113281 90.617188 229.574219 87.417969 230.0625 83.582031 C 231.945312 68.777344 233.828125 55.285156 234.046875 55.042969 C 234.269531 54.800781 241.007812 57.796875 244.898438 59.867188 C 248.136719 61.59375 253.910156 65.210938 256.960938 67.429688 C 259.867188 69.542969 265.75 74.628906 268.503906 77.414062 C 275.371094 84.347656 282.695312 94.605469 286.171875 102.152344 C 289.347656 109.042969 292.628906 117.910156 294.066406 123.496094 C 294.605469 125.589844 295.171875 126.566406 295.84375 126.566406 C 296.378906 126.566406 296.296875 124.871094 295.539062 120.265625 C 294.726562 115.324219 293.792969 111.304688 292.714844 108.152344 C 290.902344 102.835938 289.464844 99.027344 288.511719 97.015625 C 287.695312 95.292969 286.878906 93.570312 286.0625 91.847656 C 282.699219 84.730469 275.898438 75.488281 269.378906 69.175781 C 260.5625 60.640625 248.816406 53.164062 236.859375 48.476562 C 230.660156 46.046875 229.59375 45.707031 229.097656 46.015625 M 186.5 63.425781 L 174.503906 63.496094 L 174.503906 64.511719 C 174.503906 65.070312 174.582031 66.621094 174.675781 67.957031 L 174.847656 70.382812 L 183.789062 70.382812 C 193.589844 70.382812 193.582031 70.382812 193.203125 71.902344 C 193.105469 72.304688 192.027344 74.660156 190.8125 77.140625 C 189.59375 79.617188 187.171875 84.6875 185.425781 88.402344 C 183.675781 92.121094 181.519531 96.683594 180.628906 98.546875 C 179.738281 100.40625 179.011719 102.03125 179.011719 102.160156 C 179.011719 102.582031 180.183594 102.707031 184.199219 102.710938 L 188.195312 102.714844 L 189.40625 100.394531 C 190.070312 99.121094 191.0625 97.0625 191.609375 95.824219 C 192.90625 92.882812 198.609375 80.554688 201.480469 74.488281 L 203.738281 69.71875 L 203.867188 66.625 L 203.996094 63.527344 L 203.101562 63.378906 C 202.613281 63.296875 201.375 63.257812 200.355469 63.292969 C 199.332031 63.328125 193.097656 63.390625 186.5 63.425781 M 42.863281 65.351562 C 41.011719 65.632812 37.453125 66.988281 35.585938 68.121094 C 33.535156 69.367188 30.269531 72.429688 28.824219 74.464844 C 22.410156 83.511719 20.03125 102.976562 22.742188 124.3125 C 23.65625 131.519531 25.265625 139.832031 26.855469 145.601562 C 27.152344 146.671875 27.332031 147.699219 27.261719 147.886719 C 27.1875 148.078125 26.792969 148.316406 26.378906 148.417969 C 25.082031 148.742188 19.820312 151.351562 18.046875 152.550781 C 10.308594 157.777344 6.46875 163.363281 3.867188 173.183594 C 3.382812 175.015625 3.113281 176.992188 2.90625 180.234375 C 2.574219 185.46875 2.828125 187.699219 4.410156 193.453125 C 7.316406 204.015625 14.476562 214.101562 25.246094 222.804688 C 29.75 226.441406 37.386719 231.355469 42.621094 233.980469 L 45.035156 235.191406 L 45.195312 241.765625 C 45.285156 245.382812 45.539062 249.847656 45.761719 251.6875 C 46.332031 256.425781 47.726562 263.605469 48.691406 266.761719 C 50.621094 273.074219 51.46875 275.617188 52.671875 278.6875 C 53.441406 280.65625 54.140625 282.503906 54.230469 282.796875 C 54.375 283.285156 53.660156 283.5625 45.574219 286.203125 C 40.730469 287.78125 35.683594 289.601562 34.359375 290.246094 C 31.363281 291.707031 29.316406 293.492188 28.273438 295.554688 C 27.546875 296.984375 27.484375 297.332031 27.484375 299.890625 C 27.484375 302.425781 27.550781 302.808594 28.246094 304.199219 C 29.113281 305.9375 31.238281 308.023438 33.015625 308.882812 C 34.773438 309.734375 37.238281 310.0625 39.121094 309.695312 C 39.980469 309.527344 45.3125 307.855469 50.976562 305.980469 C 56.636719 304.105469 62.25 302.359375 63.445312 302.105469 L 65.625 301.636719 L 66.175781 302.398438 C 66.476562 302.820312 67.230469 303.796875 67.851562 304.570312 C 68.953125 305.949219 69.214844 306.515625 68.742188 306.515625 C 68.46875 306.515625 62 309.53125 61.023438 310.113281 C 60.660156 310.332031 58.929688 311.234375 57.179688 312.121094 C 51.339844 315.085938 49.316406 316.742188 47.699219 319.898438 C 46.769531 321.71875 46.433594 324.667969 46.945312 326.554688 C 47.644531 329.152344 50.34375 332.011719 53.070312 333.050781 C 56.515625 334.363281 59.367188 333.929688 64.207031 331.359375 C 72.90625 326.742188 83.535156 321.886719 84.953125 321.886719 C 85.097656 321.886719 85.125 322.4375 85.019531 323.214844 C 84.917969 323.941406 84.910156 324.539062 85.003906 324.539062 C 85.09375 324.539062 85.730469 324.257812 86.421875 323.914062 C 87.109375 323.570312 88.503906 322.960938 89.527344 322.5625 C 92.605469 321.363281 95.226562 320.03125 95.226562 319.675781 C 95.226562 319.277344 94.101562 318.1875 92.972656 317.492188 C 92.535156 317.21875 91.398438 316.386719 90.445312 315.636719 C 88.652344 314.222656 86.804688 313.164062 86.34375 313.285156 C 84.917969 313.660156 82.9375 314.367188 81.605469 314.980469 C 80.070312 315.6875 76.898438 317.074219 72.425781 318.988281 C 71.332031 319.457031 68.824219 320.707031 66.855469 321.761719 C 58.253906 326.382812 57.8125 326.5625 56.183594 326.113281 C 54.628906 325.683594 53.917969 324.070312 54.664062 322.675781 C 55.195312 321.6875 58.542969 319.621094 64.441406 316.644531 C 69.8125 313.929688 79.285156 309.550781 80.84375 309.054688 C 82.019531 308.683594 81.535156 307.867188 78.175781 304.5625 C 76.222656 302.640625 74.253906 300.390625 73.277344 298.964844 C 69.988281 294.175781 69.367188 293.398438 68.746094 293.308594 C 68.414062 293.261719 66.566406 293.699219 64.648438 294.28125 C 62.726562 294.863281 59.722656 295.703125 57.972656 296.148438 C 54.804688 296.949219 53.132812 297.476562 44.929688 300.25 C 39.890625 301.953125 38.007812 302.414062 37.050781 302.171875 C 36.160156 301.949219 35.304688 300.5625 35.316406 299.359375 C 35.324219 298.332031 35.636719 297.816406 36.652344 297.152344 C 37.4375 296.644531 47.910156 293.148438 52.726562 291.789062 C 54.507812 291.285156 56.296875 290.746094 56.707031 290.589844 C 58.175781 290.027344 63.800781 288.496094 64.402344 288.496094 C 64.742188 288.496094 65.085938 288.320312 65.167969 288.105469 C 65.25 287.890625 64.722656 286.488281 63.996094 284.992188 C 59.449219 275.597656 56.621094 266.949219 54.828125 256.957031 C 53.394531 248.96875 53.246094 247.257812 53.222656 238.273438 C 53.210938 233.609375 53.117188 229.660156 53.007812 229.496094 C 52.902344 229.332031 51.769531 228.753906 50.492188 228.207031 C 42.835938 224.949219 36.199219 220.980469 29.738281 215.792969 C 24.550781 211.628906 21.503906 208.308594 17.710938 202.699219 C 14.671875 198.207031 12.753906 193.683594 11.691406 188.515625 C 10.117188 180.875 11.828125 171.449219 15.789062 165.929688 C 18.3125 162.417969 23.34375 158.363281 26.6875 157.152344 C 27.5625 156.835938 30.128906 156.191406 32.390625 155.71875 C 34.648438 155.25 36.707031 154.753906 36.964844 154.621094 C 37.496094 154.339844 37.539062 153.796875 37.148438 152.210938 L 34.785156 142.601562 C 32.492188 133.265625 32.199219 131.71875 31.144531 123.386719 C 30.476562 118.121094 30.421875 116.941406 30.410156 107.882812 C 30.398438 96.980469 30.710938 93.371094 32.152344 87.609375 C 33.046875 84.035156 35.214844 79.433594 36.949219 77.425781 C 38.867188 75.207031 43.855469 73.296875 47.734375 73.296875 C 52.632812 73.296875 61.828125 76.710938 72.78125 82.597656 C 75.28125 83.945312 78.042969 85.503906 78.910156 86.0625 C 79.78125 86.625 80.617188 87.046875 80.769531 87.003906 C 80.917969 86.960938 81.859375 85.332031 82.855469 83.390625 C 84.953125 79.304688 85.007812 79.636719 81.96875 77.921875 C 78.640625 76.042969 69.609375 71.457031 66.59375 70.109375 C 62.796875 68.417969 56.40625 66.296875 53.027344 65.605469 C 50.363281 65.058594 45.554688 64.9375 42.863281 65.351562 M 325.367188 65.257812 C 317.476562 66.507812 309.097656 69.789062 297.527344 76.160156 C 292.878906 78.71875 291.691406 79.558594 291.691406 80.300781 C 291.691406 81.035156 293.4375 84.546875 294.480469 85.914062 C 294.859375 86.410156 295.355469 86.8125 295.582031 86.8125 C 295.808594 86.8125 296.847656 86.296875 297.886719 85.664062 C 302.597656 82.808594 304.953125 81.480469 306.671875 80.703125 C 307.695312 80.242188 310.257812 79.054688 312.375 78.066406 C 319.554688 74.707031 326.917969 72.9375 330.984375 73.589844 C 332.828125 73.886719 336.160156 75.132812 337.507812 76.027344 C 339.082031 77.074219 342.6875 83.621094 343.519531 86.945312 C 345.023438 92.964844 345.660156 100.972656 345.433594 111.039062 C 345.222656 120.285156 344.339844 127.851562 342.464844 136.417969 C 341.613281 140.3125 338.5625 152.488281 338.207031 153.414062 C 337.9375 154.125 338.796875 154.539062 342.09375 155.289062 C 348.714844 156.792969 350.070312 157.332031 353.734375 159.910156 C 357.21875 162.363281 359.902344 165.320312 361.386719 168.335938 C 362.195312 169.984375 363.554688 174.203125 364.066406 176.65625 C 364.625 179.335938 364.707031 183.980469 364.246094 186.992188 C 363.253906 193.511719 360.773438 199.070312 356.089844 205.277344 C 353.097656 209.242188 351.304688 211.195312 348.191406 213.863281 C 341.628906 219.492188 334.804688 223.890625 326.691406 227.71875 L 322.582031 229.660156 L 322.414062 238.207031 C 322.167969 250.789062 321.59375 255.328125 318.996094 265.304688 C 317.222656 272.109375 314.671875 278.765625 311.488281 284.921875 C 310.671875 286.492188 310.0625 287.875 310.132812 287.988281 C 310.203125 288.101562 310.945312 288.335938 311.78125 288.507812 C 314.082031 288.980469 324.519531 292.023438 329.117188 293.558594 C 338.695312 296.757812 339.785156 297.292969 340.097656 298.964844 C 340.457031 300.882812 339.503906 302.277344 337.824219 302.277344 C 337.296875 302.277344 333.511719 301.140625 329.414062 299.753906 C 321.320312 297.015625 309.9375 293.617188 307.300781 293.15625 L 306.339844 292.988281 L 305.054688 295.046875 C 302.542969 299.085938 301.332031 300.601562 297.714844 304.222656 C 295.578125 306.359375 294.082031 308.0625 294.132812 308.300781 C 294.234375 308.820312 294.386719 308.902344 297.925781 310.382812 C 299.527344 311.050781 301.199219 311.761719 301.636719 311.957031 C 302.074219 312.152344 303.207031 312.632812 304.15625 313.023438 C 305.941406 313.757812 314.78125 318.21875 317.515625 319.769531 C 318.375 320.257812 319.539062 321.09375 320.101562 321.628906 C 320.992188 322.472656 321.125 322.753906 321.125 323.789062 C 321.125 325.402344 320.363281 326.128906 318.671875 326.128906 C 317.621094 326.128906 316.445312 325.617188 310.46875 322.574219 C 306.632812 320.617188 302.65625 318.753906 301.636719 318.425781 C 300.613281 318.101562 298.859375 317.378906 297.734375 316.816406 C 294.640625 315.273438 290.390625 313.621094 289.441406 313.59375 C 288.214844 313.558594 286.460938 314.71875 282.082031 318.46875 C 281.390625 319.0625 280.824219 319.707031 280.824219 319.902344 C 280.824219 320.496094 282.140625 321.210938 284.863281 322.089844 C 286.28125 322.550781 288.101562 323.25 288.90625 323.644531 C 290.507812 324.425781 290.90625 324.351562 290.375 323.363281 C 289.980469 322.621094 290.167969 321.886719 290.753906 321.886719 C 292.074219 321.886719 299.382812 325.097656 308.390625 329.632812 C 311.519531 331.210938 314.820312 332.796875 315.726562 333.15625 C 322.277344 335.777344 329.664062 330.242188 328.96875 323.234375 C 328.867188 322.21875 328.511719 320.90625 328.121094 320.09375 C 327.445312 318.703125 325.128906 316.136719 323.640625 315.128906 C 322.488281 314.351562 315.46875 310.550781 311.082031 308.328125 C 308.988281 307.265625 307.222656 306.261719 307.15625 306.09375 C 307.09375 305.925781 307.636719 305.003906 308.363281 304.046875 C 309.085938 303.085938 309.785156 302.113281 309.914062 301.886719 C 310.121094 301.519531 310.621094 301.59375 314.179688 302.527344 C 316.398438 303.109375 318.421875 303.695312 318.675781 303.832031 C 318.929688 303.964844 322.535156 305.214844 326.691406 306.605469 C 334.84375 309.339844 337.609375 309.925781 340.101562 309.453125 C 343.824219 308.746094 346.492188 306.519531 347.695312 303.109375 C 348.75 300.121094 347.984375 296.019531 345.914062 293.574219 C 345.0625 292.566406 342.917969 290.9375 341.539062 290.242188 C 339.425781 289.183594 328.519531 285.378906 323.574219 283.980469 C 322.1875 283.585938 321.386719 283.226562 321.386719 282.996094 C 321.386719 282.679688 322.1875 280.574219 323.367188 277.761719 C 324.757812 274.460938 327.324219 265.921875 328.152344 261.859375 C 329.613281 254.675781 330.152344 249.636719 330.375 241.1875 L 330.535156 235.09375 L 334.378906 233.089844 C 340.644531 229.828125 345.746094 226.4375 351.039062 222.019531 C 355.488281 218.304688 356.757812 217.09375 359.421875 214.011719 C 369.5625 202.289062 373.726562 191.058594 372.582031 178.503906 C 371.847656 170.425781 369.496094 164.40625 364.902344 158.84375 C 361.734375 155.011719 358.382812 152.621094 352.167969 149.753906 C 348.632812 148.125 348.160156 147.835938 348.300781 147.371094 C 348.8125 145.660156 350.972656 135.542969 351.746094 131.234375 C 354.535156 115.722656 354.707031 101.550781 352.253906 89.199219 C 349.835938 77.023438 345.667969 70.621094 337.785156 66.957031 C 334.953125 65.640625 332.144531 65.070312 328.71875 65.117188 C 327.238281 65.136719 325.730469 65.199219 325.367188 65.257812 M 320.53125 84.964844 C 319.402344 85.386719 318.210938 85.910156 317.878906 86.125 C 317.550781 86.335938 316.503906 86.800781 315.554688 87.15625 C 311.121094 88.8125 299.414062 95.4375 299.351562 96.324219 C 299.285156 97.234375 299.464844 97.820312 300.796875 101.046875 C 301.554688 102.882812 302.363281 104.503906 302.59375 104.648438 C 303.628906 105.300781 304.804688 104.476562 307.070312 101.523438 C 311.117188 96.242188 319.386719 87.394531 322.117188 85.417969 C 323.246094 84.601562 323.535156 84.148438 322.914062 84.179688 C 322.730469 84.1875 321.660156 84.539062 320.53125 84.964844 M 52.007812 84.511719 C 52.007812 84.59375 52.753906 85.226562 53.667969 85.917969 C 57.734375 89 65.105469 96.957031 70.34375 103.921875 C 71.558594 105.539062 72.394531 106.417969 72.664062 106.371094 C 72.925781 106.320312 73.269531 105.6875 73.5625 104.703125 C 73.824219 103.828125 74.507812 101.652344 75.085938 99.871094 C 75.664062 98.089844 76.136719 96.417969 76.136719 96.152344 C 76.136719 95.855469 75.507812 95.265625 74.480469 94.597656 C 71.566406 92.710938 64.785156 89.171875 61.328125 87.730469 C 59.484375 86.964844 57.132812 85.972656 56.105469 85.527344 C 54.332031 84.757812 52.007812 84.183594 52.007812 84.511719 M 42.636719 87.421875 C 41.761719 88.078125 40.714844 92.183594 40.03125 97.679688 C 39.585938 101.246094 39.589844 112.972656 40.039062 117.027344 C 40.996094 125.660156 42.585938 134.714844 44.226562 140.878906 C 45.957031 147.386719 48.371094 154.574219 49.050781 155.253906 C 49.191406 155.390625 51.132812 155.855469 53.375 156.285156 C 55.613281 156.714844 59.15625 157.402344 61.246094 157.808594 C 64.425781 158.425781 65.109375 158.488281 65.40625 158.191406 C 65.6875 157.910156 65.757812 155.917969 65.75 148.230469 C 65.738281 136.996094 65.886719 135.773438 67.742188 131.722656 C 68.808594 129.398438 69.007812 128.664062 69.367188 125.765625 C 69.59375 123.945312 69.894531 121.742188 70.039062 120.867188 C 70.527344 117.898438 70.386719 115.914062 69.574219 114.394531 C 67.96875 111.390625 60.921875 102.835938 55.46875 97.28125 C 47.953125 89.621094 43.878906 86.492188 42.636719 87.421875 M 330.464844 88.023438 C 329.550781 88.542969 328.121094 89.589844 327.285156 90.347656 C 326.449219 91.105469 325.046875 92.316406 324.171875 93.039062 C 323.296875 93.761719 322.363281 94.59375 322.097656 94.890625 C 321.832031 95.183594 320.808594 96.261719 319.824219 97.28125 C 315.917969 101.332031 309.964844 108.625 306.558594 113.53125 C 305.53125 115.011719 305.21875 116.480469 305.496094 118.53125 C 306.761719 127.847656 306.828125 128.195312 307.992188 131.417969 C 308.636719 133.195312 309.300781 135.1875 309.46875 135.84375 C 309.660156 136.589844 309.824219 140.992188 309.910156 147.679688 C 310.039062 157.566406 310.082031 158.332031 310.515625 158.445312 C 310.773438 158.511719 313.175781 158.121094 315.855469 157.574219 C 318.535156 157.03125 321.914062 156.371094 323.363281 156.109375 C 325.25 155.773438 326.160156 155.476562 326.558594 155.078125 C 327.664062 153.976562 331.492188 141.054688 333.046875 133.183594 C 335.128906 122.667969 335.828125 116.144531 335.804688 107.484375 C 335.777344 98.347656 335.257812 93.59375 333.78125 89.046875 C 333.054688 86.804688 332.761719 86.714844 330.464844 88.023438 M 125.851562 105.015625 C 119.644531 105.546875 114.945312 106.542969 110.597656 108.246094 C 101.925781 111.640625 95.628906 117.886719 92.21875 126.484375 C 89.289062 133.871094 89.011719 144.734375 91.554688 152.40625 C 93.433594 158.066406 99.402344 165.675781 103.328125 167.414062 C 103.917969 167.675781 106.902344 168.316406 109.957031 168.835938 C 113.488281 169.441406 117.019531 170.0625 120.546875 170.691406 C 127.824219 172 129.65625 172.210938 133.804688 172.21875 C 138.191406 172.226562 139.726562 171.882812 145.453125 169.601562 C 153.5 166.394531 159.414062 162.253906 164.65625 156.15625 C 168.300781 151.921875 170.109375 148.667969 171.535156 143.792969 C 173.050781 138.605469 173.441406 134.582031 172.792969 130.863281 C 172.113281 126.984375 170.335938 122.234375 168.5625 119.574219 C 166.945312 117.140625 163.660156 113.914062 161.039062 112.179688 C 157.097656 109.578125 149.699219 106.871094 143.761719 105.863281 C 139.828125 105.199219 129.453125 104.707031 125.851562 105.015625 M 238.867188 105.132812 C 233.523438 105.453125 229.320312 106.246094 224.746094 107.789062 C 217.277344 110.308594 214.066406 112.199219 209.863281 116.539062 C 206.785156 119.71875 205.226562 122.484375 203.734375 127.4375 C 202.78125 130.589844 202.757812 130.785156 202.761719 134.914062 C 202.761719 139.410156 203.054688 141.125 204.570312 145.574219 C 206.878906 152.34375 213.625 160.230469 221.320312 165.152344 C 223.757812 166.710938 229.570312 169.429688 232.566406 170.414062 C 237.417969 172.007812 240.441406 172.515625 243.960938 172.332031 C 246.84375 172.179688 255.691406 170.8125 263.058594 169.378906 C 264.882812 169.023438 267.667969 168.484375 269.253906 168.179688 C 270.835938 167.875 272.449219 167.464844 272.832031 167.261719 C 274.195312 166.554688 277.226562 163.777344 278.632812 161.945312 C 282.253906 157.234375 284.046875 153.324219 285.222656 147.5625 C 285.859375 144.445312 285.902344 143.808594 285.789062 139.15625 C 285.625 132.445312 284.894531 129.15625 282.417969 124.046875 C 279.144531 117.296875 274.082031 112.308594 267.222656 109.078125 C 259.457031 105.421875 251.777344 104.351562 238.867188 105.132812 M 124.789062 111.347656 C 120.550781 111.957031 113.722656 113.875 110.644531 115.324219 C 104.886719 118.027344 101.121094 121.835938 99.125 126.964844 C 96.78125 132.980469 96.4375 134.648438 96.453125 139.949219 C 96.464844 144.867188 96.785156 146.878906 98.148438 150.554688 C 99.476562 154.148438 100.066406 155.246094 101.90625 157.574219 C 105.054688 161.554688 108.5625 163.945312 113.917969 165.757812 C 117.96875 167.125 120.972656 167.492188 126.613281 167.304688 C 137.605469 166.9375 144.796875 164.417969 153.558594 157.871094 C 160.199219 152.90625 164.777344 146.273438 166.035156 139.800781 C 167.097656 134.316406 166.457031 129.210938 164.136719 124.65625 C 162.339844 121.132812 157.636719 117.261719 152.496094 115.066406 C 150.464844 114.199219 143.296875 112.363281 139.902344 111.839844 C 137.585938 111.480469 126.394531 111.117188 124.789062 111.347656 M 239.59375 111.378906 C 234.105469 111.878906 224.984375 114.046875 221.917969 115.582031 C 213.441406 119.824219 209.234375 126.203125 209.234375 134.8125 C 209.234375 141.648438 211.425781 147.070312 216.449219 152.679688 C 222.667969 159.621094 232.363281 164.824219 242.507812 166.664062 C 246.777344 167.4375 255.132812 167.488281 258.496094 166.757812 C 265.199219 165.304688 269.96875 162.527344 273.664062 157.929688 C 276.148438 154.835938 277.269531 152.414062 278.742188 146.964844 C 279.609375 143.761719 279.605469 137.234375 278.734375 133.199219 C 278.027344 129.921875 276.757812 126.414062 275.5 124.265625 C 274.3125 122.242188 270.707031 118.710938 267.96875 116.886719 C 264.285156 114.441406 256.601562 111.941406 251.261719 111.453125 C 248.71875 111.222656 241.8125 111.179688 239.59375 111.378906 M 238.019531 118.351562 L 236.179688 118.484375 L 234.996094 120.207031 C 233.800781 121.941406 229.207031 128.820312 222.277344 139.246094 C 219.582031 143.296875 218.515625 145.121094 218.515625 145.675781 C 218.515625 146.285156 219.03125 147.015625 220.875 149.03125 C 222.171875 150.449219 223.730469 152.089844 224.339844 152.671875 L 225.445312 153.730469 L 225.960938 153.105469 C 226.242188 152.757812 227.324219 151.089844 228.363281 149.394531 C 229.402344 147.699219 230.476562 146.011719 230.746094 145.648438 C 231.015625 145.285156 233.101562 142.183594 235.382812 138.757812 C 237.4375 135.671875 239.492188 132.589844 241.550781 129.511719 C 242.664062 127.851562 244.246094 125.4375 245.074219 124.152344 C 245.898438 122.867188 247.121094 121.101562 247.789062 120.234375 C 248.460938 119.367188 249.007812 118.59375 249.007812 118.515625 C 249.007812 118.320312 240.265625 118.1875 238.019531 118.351562 M 120.757812 119.023438 C 120.496094 119.390625 119.738281 120.433594 119.070312 121.339844 C 117.085938 124.039062 105.007812 142.582031 102.691406 146.484375 C 102.28125 147.175781 102.308594 147.242188 104.011719 149.804688 C 106.382812 153.363281 108.390625 155.738281 108.871094 155.554688 C 109.082031 155.472656 110.4375 153.597656 111.886719 151.390625 C 113.339844 149.179688 114.941406 146.773438 115.449219 146.046875 C 115.960938 145.316406 118.539062 141.441406 121.175781 137.433594 C 123.816406 133.425781 126.558594 129.308594 127.273438 128.289062 C 127.988281 127.269531 129.253906 125.242188 130.085938 123.785156 C 130.917969 122.324219 132.066406 120.652344 132.636719 120.0625 C 133.207031 119.476562 133.671875 118.847656 133.671875 118.671875 C 133.671875 118.429688 132.148438 118.351562 127.453125 118.351562 L 121.234375 118.351562 Z M 138.691406 125.144531 C 136.441406 128.445312 134 131.992188 133.269531 133.03125 C 132.539062 134.066406 131.226562 136.046875 130.355469 137.425781 C 129.480469 138.808594 127.761719 141.433594 126.53125 143.257812 C 125.304688 145.082031 122.339844 149.480469 119.949219 153.035156 C 117.558594 156.589844 115.699219 159.582031 115.820312 159.6875 C 116.246094 160.058594 121.226562 161.316406 121.945312 161.234375 C 122.554688 161.164062 123.089844 160.511719 125.371094 157.042969 C 126.855469 154.785156 132.421875 146.375 137.738281 138.359375 C 143.054688 130.34375 147.671875 123.328125 147.996094 122.773438 C 148.914062 121.214844 148.550781 120.753906 145.703125 119.871094 C 144.410156 119.46875 143.222656 119.140625 143.066406 119.144531 C 142.914062 119.144531 140.945312 121.84375 138.691406 125.144531 M 256.828125 120.65625 C 256.160156 121.5 253.984375 124.636719 251.996094 127.625 C 250.007812 130.613281 245.6875 137.101562 242.398438 142.039062 C 232.542969 156.820312 232.914062 156.207031 233.355469 157.027344 C 233.574219 157.4375 236.535156 158.789062 238.285156 159.28125 C 239.140625 159.519531 239.488281 159.050781 246.085938 148.695312 C 249.054688 144.042969 252.167969 139.25 256.300781 132.988281 C 262.238281 123.988281 263.371094 122.125 263.277344 121.511719 C 263.210938 121.058594 262.761719 120.777344 261.203125 120.207031 C 257.828125 118.976562 258.195312 118.9375 256.828125 120.65625 M 179.101562 122.65625 C 179.191406 123.277344 179.515625 125.15625 179.820312 126.832031 C 180.277344 129.367188 180.363281 130.792969 180.316406 135.3125 C 180.289062 138.300781 180.28125 140.824219 180.300781 140.925781 C 180.320312 141.023438 181.378906 140.730469 182.65625 140.273438 C 184.664062 139.550781 185.332031 139.4375 187.628906 139.433594 C 190.332031 139.429688 193.042969 140.070312 194.28125 141.011719 C 194.558594 141.21875 194.90625 141.394531 195.050781 141.398438 C 195.21875 141.40625 195.316406 139.269531 195.316406 135.511719 C 195.316406 130.398438 195.398438 129.167969 195.953125 126.261719 C 196.300781 124.417969 196.507812 122.710938 196.414062 122.464844 C 196.261719 122.0625 195.933594 122.039062 193.261719 122.230469 C 188.902344 122.539062 184.453125 122.425781 182.242188 121.949219 C 181.175781 121.71875 179.996094 121.53125 179.621094 121.53125 C 178.96875 121.53125 178.945312 121.582031 179.101562 122.65625 M 80.300781 134.167969 C 79.746094 134.398438 78.378906 135.074219 77.257812 135.675781 C 75.34375 136.703125 75.210938 136.832031 75.046875 137.828125 C 74.648438 140.203125 74.28125 146.246094 74.28125 150.359375 L 74.28125 154.726562 L 75.277344 154.59375 C 75.824219 154.519531 77.671875 154.019531 79.390625 153.480469 C 83.003906 152.351562 83.414062 151.988281 83.027344 150.265625 C 82.722656 148.921875 82.242188 141.121094 82.238281 137.527344 C 82.234375 135.355469 82.144531 134.738281 81.769531 134.296875 C 81.332031 133.78125 81.257812 133.773438 80.300781 134.167969 M 293.429688 139.070312 C 293.320312 142.03125 293.085938 145.945312 292.902344 147.769531 C 292.691406 149.867188 292.660156 151.261719 292.816406 151.570312 C 292.953125 151.839844 293.5625 152.273438 294.167969 152.539062 C 296.042969 153.351562 300.355469 154.484375 300.851562 154.292969 C 301.289062 154.125 301.308594 153.738281 301.148438 148.886719 C 300.945312 142.601562 300.539062 138.089844 300.101562 137.214844 C 299.777344 136.570312 295.679688 134.1875 294.316406 133.851562 L 293.625 133.683594 Z M 184.914062 148.292969 C 182.480469 149.523438 180.523438 151.640625 177.167969 156.664062 C 173.910156 161.539062 172.230469 163.722656 169.828125 166.199219 C 168.183594 167.894531 163.910156 171.511719 162.242188 172.621094 C 161.195312 173.3125 160.984375 173.988281 161.632812 174.527344 C 161.847656 174.707031 163.308594 174.957031 164.882812 175.085938 C 166.457031 175.214844 169.53125 175.46875 171.71875 175.65625 C 177.628906 176.15625 197.304688 176.0625 205.921875 175.492188 C 209.714844 175.242188 213.082031 174.96875 213.410156 174.890625 C 214.238281 174.6875 214.175781 173.824219 213.277344 173.046875 C 212.878906 172.703125 211.214844 171.339844 209.578125 170.023438 C 205.945312 167.097656 204.492188 165.347656 199.796875 158.226562 C 194.679688 150.464844 191.925781 147.929688 188.265625 147.605469 C 186.726562 147.472656 186.410156 147.535156 184.914062 148.292969 M 83.871094 160.226562 L 82.722656 160.746094 L 83.25 161.480469 C 85.046875 163.984375 87.273438 164.589844 87.273438 162.570312 C 87.273438 161.59375 86.085938 159.691406 85.480469 159.699219 C 85.226562 159.703125 84.503906 159.941406 83.871094 160.226562 M 288.828125 161.085938 C 288.398438 161.851562 287.972656 162.804688 287.878906 163.207031 C 287.710938 163.917969 287.734375 163.933594 288.890625 163.933594 C 290.410156 163.933594 291.371094 163.492188 291.847656 162.570312 C 292.53125 161.25 292.347656 160.597656 291.15625 160.121094 C 290.570312 159.886719 289.984375 159.695312 289.851562 159.695312 C 289.71875 159.695312 289.257812 160.320312 288.828125 161.085938 M 37.589844 164.484375 C 33.125 165.101562 30.289062 166.066406 27.511719 167.925781 C 24.378906 170.019531 22.667969 172.238281 21.613281 175.570312 C 21.121094 177.128906 20.789062 182.113281 21.191406 181.863281 C 21.347656 181.765625 21.554688 181.339844 21.648438 180.917969 C 21.855469 179.972656 23.34375 177.46875 24.628906 175.898438 C 26.492188 173.628906 30.972656 171.3125 35.304688 170.382812 C 37.109375 169.996094 38.703125 169.898438 43.261719 169.910156 C 46.414062 169.917969 49.847656 170.066406 50.949219 170.246094 C 56.75 171.1875 65.234375 172.941406 72.425781 174.6875 C 98.351562 180.984375 98.46875 181.007812 113.542969 183.53125 C 128.9375 186.109375 144.949219 187.882812 161.511719 188.84375 C 168.605469 189.253906 184.804688 189.605469 191.472656 189.492188 C 214.492188 189.101562 216.515625 189.015625 228.855469 187.90625 C 243.664062 186.578125 253.609375 185.339844 262.792969 183.691406 C 264.761719 183.335938 268.339844 182.734375 270.746094 182.355469 C 276.765625 181.40625 279.308594 180.863281 287.582031 178.777344 C 306.582031 173.984375 318.039062 171.375 324.96875 170.253906 C 326.277344 170.042969 329.417969 169.914062 333.1875 169.921875 C 340.304688 169.933594 341.699219 170.199219 346.179688 172.40625 C 350.171875 174.371094 352.546875 176.921875 353.753906 180.558594 C 354.058594 181.472656 354.40625 182.222656 354.519531 182.222656 C 355.179688 182.222656 354.902344 177.789062 354.09375 175.371094 C 352.328125 170.097656 347.730469 166.289062 341.539062 164.972656 C 337.875 164.191406 330.921875 164.019531 325.679688 164.574219 C 320.839844 165.089844 315.21875 166.175781 309.058594 167.78125 C 300.324219 170.058594 288.304688 172.960938 281.484375 174.429688 C 277.695312 175.25 272.476562 176.378906 269.894531 176.9375 C 267.3125 177.5 263.316406 178.207031 261.011719 178.515625 C 258.710938 178.824219 254.082031 179.480469 250.730469 179.972656 C 241.582031 181.316406 229.519531 182.421875 217.453125 183.027344 C 214.464844 183.175781 210.347656 183.410156 208.308594 183.542969 C 203.425781 183.863281 178.632812 183.863281 172.382812 183.546875 C 169.683594 183.410156 164.433594 183.171875 160.714844 183.015625 C 149.125 182.535156 137.941406 181.503906 126.246094 179.835938 C 115.378906 178.289062 110.695312 177.527344 105.699219 176.5 C 103.222656 175.988281 97.671875 174.867188 93.371094 174.003906 C 89.070312 173.144531 85.027344 172.253906 84.386719 172.03125 C 82.460938 171.347656 74.503906 169.335938 68.589844 168.035156 C 65.535156 167.363281 62.96875 166.773438 62.890625 166.726562 C 62.570312 166.535156 56.957031 165.453125 53.734375 164.960938 C 49.761719 164.359375 40.488281 164.082031 37.589844 164.484375 M 59.96875 191.890625 C 59.730469 192.175781 59.714844 192.476562 59.917969 193.015625 C 62.257812 199.308594 63.960938 203.5625 64.164062 203.628906 C 64.4375 203.71875 65.128906 202.933594 68.765625 198.386719 C 70.105469 196.710938 71.773438 194.648438 72.476562 193.800781 C 73.175781 192.957031 73.75 192.164062 73.75 192.042969 C 73.75 191.574219 72.730469 191.496094 66.601562 191.496094 C 61.359375 191.496094 60.238281 191.5625 59.96875 191.890625 M 301.898438 191.765625 C 301.738281 192.027344 302.59375 193.136719 305.890625 196.929688 C 306.78125 197.949219 308.3125 199.796875 309.296875 201.039062 C 310.28125 202.277344 311.21875 203.289062 311.378906 203.289062 C 311.710938 203.289062 315.792969 193.25 315.808594 192.386719 C 315.816406 192.074219 315.632812 191.746094 315.402344 191.65625 C 314.664062 191.375 302.078125 191.472656 301.898438 191.765625 " fill-opacity="1" fill-rule="evenodd"/></svg>